<svg id="Layer_1" data-name="Layer 1" xmlns="http://www.w3.org/2000/svg" viewBox="0 0 175 52"><defs><style>.cls-1{fill:#111;}.cls-2{fill:#003052;}</style></defs><path class="cls-1" d="M6.82,36.54A6.61,6.61,0,0,1,4,34.31a5.82,5.82,0,0,1-1.09-3.44H7.52a3,3,0,0,0,1,2.11,3.35,3.35,0,0,0,2.34.77A3.55,3.55,0,0,0,13.19,33a2.35,2.35,0,0,0,.87-1.9,2.17,2.17,0,0,0-.59-1.58,4,4,0,0,0-1.47-1,24.21,24.21,0,0,0-2.43-.79,24.51,24.51,0,0,1-3.43-1.23,6,6,0,0,1-2.26-1.82,5.24,5.24,0,0,1-.95-3.28,5.83,5.83,0,0,1,1-3.34,6.14,6.14,0,0,1,2.7-2.19,9.93,9.93,0,0,1,4-.76A8.59,8.59,0,0,1,16,16.78a6.06,6.06,0,0,1,2.31,4.54H13.54a2.5,2.5,0,0,0-.95-1.84,3.54,3.54,0,0,0-2.34-.73,3,3,0,0,0-2,.65,2.33,2.33,0,0,0-.76,1.89A2,2,0,0,0,8,22.73a4.43,4.43,0,0,0,1.43.93c.57.24,1.37.51,2.4.82a26.46,26.46,0,0,1,3.44,1.24,6.32,6.32,0,0,1,2.3,1.86,5.18,5.18,0,0,1,1,3.26,6.09,6.09,0,0,1-.9,3.22A6.37,6.37,0,0,1,15,36.43a8.94,8.94,0,0,1-4.12.89A10.24,10.24,0,0,1,6.82,36.54Z"/><path class="cls-1" d="M26.28,33.53h7.65V37.1H21.35V33.6l7.5-10.11H21.38V19.93H33.84v3.5Z"/><path class="cls-1" d="M37.58,17.15a2.55,2.55,0,0,1,0-3.63,2.88,2.88,0,0,1,3.81,0,2.55,2.55,0,0,1,0,3.63,2.85,2.85,0,0,1-3.81,0Zm4,2.78V37.1H37.28V19.93Z"/><path class="cls-1" d="M50.24,14.16V37.1H45.9V14.16Z"/><path class="cls-1" d="M54.44,23.83a7.65,7.65,0,0,1,2.82-3.1,7.55,7.55,0,0,1,4-1.08,7.1,7.1,0,0,1,3.37.77,6.85,6.85,0,0,1,2.31,2V19.93h4.37V37.1H66.92V34.59a6.58,6.58,0,0,1-2.31,2,7.05,7.05,0,0,1-3.4.79,7.26,7.26,0,0,1-4-1.12,7.76,7.76,0,0,1-2.82-3.14,10.16,10.16,0,0,1-1-4.67A10,10,0,0,1,54.44,23.83Zm11.86,2a4.43,4.43,0,0,0-3.94-2.34,4.37,4.37,0,0,0-3.89,2.31,5.42,5.42,0,0,0-.64,2.68,5.59,5.59,0,0,0,.64,2.71A4.59,4.59,0,0,0,60.14,33a4.3,4.3,0,0,0,2.22.62A4.48,4.48,0,0,0,64.62,33a4.37,4.37,0,0,0,1.68-1.73,5.63,5.63,0,0,0,.62-2.72A5.62,5.62,0,0,0,66.3,25.8Zm0-10.34L59.2,18.72v-3.1l7.13-3.69Z"/><path class="cls-1" d="M82.06,20.45a6.15,6.15,0,0,1,3.08-.77v4.55H84a4.4,4.4,0,0,0-3.09,1,4.42,4.42,0,0,0-1,3.34V37.1H75.53V19.93h4.34v2.66A6.15,6.15,0,0,1,82.06,20.45Z"/><path class="cls-1" d="M88,23.83a7.48,7.48,0,0,1,6.84-4.18,7.23,7.23,0,0,1,3.19.73,6.4,6.4,0,0,1,2.42,1.93V14.16h4.4V37.1h-4.4V34.56a5.81,5.81,0,0,1-2.26,2,7.08,7.08,0,0,1-3.38.78,7.33,7.33,0,0,1-4-1.12A7.73,7.73,0,0,1,88,33.12a10.16,10.16,0,0,1-1-4.67A10,10,0,0,1,88,23.83Zm11.86,2a4.4,4.4,0,0,0-3.94-2.34A4.37,4.37,0,0,0,92,25.77a5.42,5.42,0,0,0-.63,2.68A5.59,5.59,0,0,0,92,31.16,4.59,4.59,0,0,0,93.68,33a4.33,4.33,0,0,0,2.22.62A4.54,4.54,0,0,0,98.17,33a4.42,4.42,0,0,0,1.67-1.73,5.63,5.63,0,0,0,.62-2.72A5.62,5.62,0,0,0,99.84,25.8Z"/><path class="cls-1" d="M109.06,36.59a2.55,2.55,0,0,1,0-3.63,2.71,2.71,0,0,1,1.94-.73,2.63,2.63,0,0,1,1.89.73,2.6,2.6,0,0,1,0,3.63,2.63,2.63,0,0,1-1.89.73A2.71,2.71,0,0,1,109.06,36.59Z"/><path class="cls-2" d="M117.06,23.83a7.48,7.48,0,0,1,6.83-4.18,7.28,7.28,0,0,1,3.2.73,6.29,6.29,0,0,1,2.41,1.93V14.16h4.41V37.1H129.5V34.56a5.75,5.75,0,0,1-2.26,2,7.06,7.06,0,0,1-3.38.78,7.3,7.3,0,0,1-4-1.12,7.73,7.73,0,0,1-2.84-3.14,10.16,10.16,0,0,1-1-4.67A10,10,0,0,1,117.06,23.83Zm11.86,2a4.54,4.54,0,0,0-1.68-1.74,4.47,4.47,0,0,0-2.26-.6,4.37,4.37,0,0,0-3.89,2.31,5.42,5.42,0,0,0-.64,2.68,5.59,5.59,0,0,0,.64,2.71A4.59,4.59,0,0,0,122.76,33a4.3,4.3,0,0,0,2.22.62,4.48,4.48,0,0,0,3.94-2.34,5.63,5.63,0,0,0,.62-2.72A5.62,5.62,0,0,0,128.92,25.8Z"/><path class="cls-2" d="M154,29.81H141.44a4.28,4.28,0,0,0,1.3,2.92,4,4,0,0,0,2.82,1.05A3.54,3.54,0,0,0,149,31.71h4.68a7.74,7.74,0,0,1-2.85,4.07,8.27,8.27,0,0,1-5.17,1.6,9,9,0,0,1-4.45-1.1,7.69,7.69,0,0,1-3.07-3.12,9.46,9.46,0,0,1-1.1-4.65,9.8,9.8,0,0,1,1.08-4.68,7.69,7.69,0,0,1,3-3.1,9.13,9.13,0,0,1,4.5-1.08A9,9,0,0,1,150,20.7a7.41,7.41,0,0,1,3,3,9.1,9.1,0,0,1,1.07,4.45A10.47,10.47,0,0,1,154,29.81Zm-4.38-2.91a3.44,3.44,0,0,0-1.2-2.68,4.31,4.31,0,0,0-2.89-1,3.94,3.94,0,0,0-2.71,1,4.27,4.27,0,0,0-1.35,2.71Z"/><path class="cls-2" d="M164.44,33.1l4.34-13.17h4.62L167.05,37.1h-5.27l-6.33-17.17h4.65Z"/></svg>